# xmcd CD database file
#
# Track frame offsets:
#	150
#	19776
#	35902
#	54694
#	80307
#	96364
#	117629
#	130202
#	145855
#	162527
#	181958
#	201010
#	219320
#	239338
#	251105
#
# Disc length: 3548 seconds
#
# Revision: 1
# Processed by: cddbd v1.5PL3 Copyright (c) Steve Scherf et al.
# Submitted via: CDex 1.51
#
DISCID=df0dda0f
DTITLE=Various Artist - Blue Prelude
DYEAR=2000
DGENRE=Jazz
TTITLE0=Blue Prelude
TTITLE1=Too Close For Comfort
TTITLE2=The Touch Of Your Lips
TTITLE3=Baroque And Blue
TTITLE4=Oh The Alamo
TTITLE5=Seaside
TTITLE6=How Long Has This Been Going On?
TTITLE7=You Stepped Out Of A Dream
TTITLE8=Stompin' At The Savoy
TTITLE9=Veloce
TTITLE10=I Thought About You
TTITLE11=There Will Never Be Another You
TTITLE12=In A Mellow Tone
TTITLE13=Broadway
TTITLE14=Killer Joe
EXTD=YEAR: 2000
EXTT0=
EXTT1=
EXTT2=
EXTT3=
EXTT4=
EXTT5=
EXTT6=
EXTT7=
EXTT8=
EXTT9=
EXTT10=
EXTT11=
EXTT12=
EXTT13=
EXTT14=
PLAYORDER=
